<?xml version="1.0" encoding="utf-8"?>
<!-- Generator: Adobe Illustrator 15.1.0, SVG Export Plug-In . SVG Version: 6.00 Build 0)  -->
<!DOCTYPE svg PUBLIC "-//W3C//DTD SVG 1.1//EN" "http://www.w3.org/Graphics/SVG/1.1/DTD/svg11.dtd">
<svg version="1.1" id="Layer_1" xmlns="http://www.w3.org/2000/svg" xmlns:xlink="http://www.w3.org/1999/xlink" x="0px" y="0px"
	 width="44px" height="38px" viewBox="0 0 44 38" enable-background="new 0 0 44 38" xml:space="preserve">
<path fill="#635A53" d="M33,17H15.828l4.085-4.085c0.781-0.781,0.781-2.047,0-2.829c-0.78-0.781-2.048-0.781-2.828,0l-7.5,7.5l0,0
	c-0.093,0.093-0.176,0.195-0.249,0.305c-0.033,0.049-0.056,0.103-0.084,0.154c-0.034,0.063-0.072,0.124-0.1,0.19
	c-0.027,0.066-0.043,0.136-0.063,0.204c-0.017,0.057-0.039,0.111-0.05,0.169c-0.051,0.259-0.051,0.524,0,0.783
	c0.012,0.059,0.034,0.113,0.05,0.169c0.02,0.068,0.036,0.138,0.063,0.204c0.028,0.066,0.066,0.127,0.1,0.19
	c0.028,0.052,0.051,0.104,0.084,0.154c0.073,0.109,0.156,0.212,0.249,0.305l0,0l7.5,7.5c0.39,0.391,0.902,0.586,1.414,0.586
	s1.024-0.195,1.414-0.586c0.781-0.78,0.781-2.047,0-2.828L15.828,21H33c1.104,0,2-0.896,2-2S34.104,17,33,17z"/>
</svg>
