<?xml version="1.0" encoding="utf-8"?>
<!-- Generator: Adobe Illustrator 15.1.0, SVG Export Plug-In . SVG Version: 6.00 Build 0)  -->
<!DOCTYPE svg PUBLIC "-//W3C//DTD SVG 1.1//EN" "http://www.w3.org/Graphics/SVG/1.1/DTD/svg11.dtd">
<svg version="1.1" id="Layer_1" xmlns="http://www.w3.org/2000/svg" xmlns:xlink="http://www.w3.org/1999/xlink" x="0px" y="0px"
	 width="38px" height="38px" viewBox="0 0 38 38" enable-background="new 0 0 38 38" xml:space="preserve">
<path fill="#635A53" d="M21.904,19l5.994-5.993c0.802-0.802,0.803-2.102,0.001-2.904c-0.802-0.803-2.102-0.803-2.903-0.001
	L19,16.097l-5.997-5.996c-0.802-0.802-2.102-0.801-2.903,0.001c-0.801,0.802-0.801,2.103,0.001,2.904L16.096,19l-5.995,5.993
	c-0.802,0.802-0.802,2.103-0.001,2.904c0.401,0.401,0.926,0.603,1.452,0.603c0.525,0,1.05-0.201,1.451-0.602L19,21.904l5.996,5.994
	c0.401,0.401,0.926,0.602,1.451,0.602s1.052-0.201,1.452-0.603c0.802-0.802,0.801-2.103-0.001-2.904L21.904,19z"/>
</svg>
