<?xml version="1.0" encoding="utf-8"?>
<!-- Generator: Adobe Illustrator 15.1.0, SVG Export Plug-In . SVG Version: 6.00 Build 0)  -->
<!DOCTYPE svg PUBLIC "-//W3C//DTD SVG 1.1//EN" "http://www.w3.org/Graphics/SVG/1.1/DTD/svg11.dtd">
<svg version="1.1" id="Layer_1" xmlns="http://www.w3.org/2000/svg" xmlns:xlink="http://www.w3.org/1999/xlink" x="0px" y="0px"
	 width="216px" height="290px" viewBox="0 0 216 290" enable-background="new 0 0 216 290" xml:space="preserve">
<g>
	<path fill="#595552" d="M214.943,62.412c-0.367-0.641-9.199-15.853-26.677-31.075C164.98,11.055,137.225,0.334,108,0.334
		S51.02,11.055,27.733,31.337C10.256,46.56,1.424,61.771,1.056,62.412c-1.406,2.447-1.406,5.453,0,7.901
		c0.368,0.641,9.2,15.853,26.677,31.076C51.02,121.671,78.775,132.393,108,132.393s56.98-10.722,80.267-31.003
		c17.478-15.224,26.31-30.436,26.677-31.076C216.35,67.865,216.35,64.859,214.943,62.412z M108,84.613
		c-10.125,0-18.333-8.172-18.333-18.251c0-10.077,8.208-18.249,18.333-18.249c10.125,0,18.332,8.172,18.332,18.249
		C126.332,76.441,118.125,84.613,108,84.613z M17.525,66.362c3.521-5.072,10.615-14.295,21.156-23.396
		c11.944-10.313,24.843-17.645,38.555-21.991c-14.622,9.84-24.235,26.497-24.235,45.388c0,18.893,9.613,35.55,24.235,45.39
		c-13.712-4.347-26.611-11.679-38.555-21.991C28.137,80.655,21.042,71.432,17.525,66.362z M177.319,89.761
		c-11.944,10.312-24.843,17.645-38.556,21.991c14.622-9.84,24.235-26.497,24.235-45.39c0-18.891-9.613-35.548-24.235-45.388
		c13.713,4.347,26.611,11.678,38.556,21.991c10.544,9.104,17.638,18.328,21.155,23.396C194.955,71.436,187.86,80.658,177.319,89.761
		z"/>
	<path fill="#595552" d="M206.171,216.129c5.649-7.047,8.565-12.065,8.774-12.429c2.188-3.813,0.859-8.664-2.969-10.851
		c-3.825-2.186-8.713-0.869-10.916,2.936c-0.079,0.139-8.129,13.882-23.74,27.361c-20.525,17.721-43.847,26.706-69.32,26.706
		c-25.509,0-48.855-8.73-69.392-25.948c-15.598-13.079-23.64-26.412-23.719-26.546c-2.243-3.781-7.138-5.041-10.944-2.813
		c-3.808,2.23-5.079,7.111-2.839,10.902c0.196,0.332,2.791,4.671,7.805,10.891L0.719,234.28c-1.828,4.004-0.05,8.726,3.973,10.545
		c1.074,0.486,2.198,0.716,3.305,0.716c3.041,0,5.947-1.735,7.288-4.67l5.347-11.71c2.21,2.143,4.603,4.331,7.188,6.519
		c5.857,4.956,11.997,9.322,18.37,13.083l-5.906,21.559c-1.163,4.243,1.351,8.62,5.613,9.777c0.704,0.191,1.412,0.283,2.109,0.283
		c3.519,0,6.743-2.328,7.713-5.871l5.035-18.377C71.086,260.535,82,263.457,93,264.844v17.526c0,4.398,3.582,7.964,8,7.964
		s8-3.565,8-7.964v-16.602c13-0.111,26.102-2.409,38.412-6.795l2.717,14.866c0.701,3.846,4.068,6.541,7.861,6.541
		c0.475,0,0.957-0.042,1.439-0.13c4.348-0.786,7.23-4.933,6.441-9.258l-3.395-18.578c9.055-4.692,17.692-10.585,25.791-17.64
		c2.282-1.988,4.414-3.974,6.401-5.93l6.175,12.292c1.401,2.79,4.227,4.403,7.161,4.403c1.202,0,2.423-0.271,3.571-0.843
		c3.951-1.967,5.553-6.75,3.578-10.685L206.171,216.129z"/>
</g>
</svg>
