<?xml version="1.0" encoding="utf-8"?>
<!-- Generator: Adobe Illustrator 15.1.0, SVG Export Plug-In . SVG Version: 6.00 Build 0)  -->
<!DOCTYPE svg PUBLIC "-//W3C//DTD SVG 1.1//EN" "http://www.w3.org/Graphics/SVG/1.1/DTD/svg11.dtd">
<svg version="1.1" id="Layer_1" xmlns="http://www.w3.org/2000/svg" xmlns:xlink="http://www.w3.org/1999/xlink" x="0px" y="0px"
	 width="54px" height="80px" viewBox="0 0 54 80" enable-background="new 0 0 54 80" xml:space="preserve">
<path fill="#635A53" d="M35,36c0-4.411-3.589-8-8-8s-8,3.589-8,8c0,3.775,2.632,6.939,6.154,7.776v1.454h-0.308
	c-1.02,0-1.846,0.827-1.846,1.847c0,1.019,0.826,1.846,1.846,1.846h0.308v1.231C25.154,51.173,25.98,52,27,52
	c1.02,0,1.846-0.827,1.846-1.846v-6.378C32.368,42.939,35,39.775,35,36z M27,40.308c-2.375,0-4.308-1.932-4.308-4.308
	s1.933-4.308,4.308-4.308s4.308,1.932,4.308,4.308S29.375,40.308,27,40.308z"/>
</svg>
