<?xml version="1.0" encoding="utf-8"?>
<!-- Generator: Adobe Illustrator 15.1.0, SVG Export Plug-In . SVG Version: 6.00 Build 0)  -->
<!DOCTYPE svg PUBLIC "-//W3C//DTD SVG 1.1//EN" "http://www.w3.org/Graphics/SVG/1.1/DTD/svg11.dtd">
<svg version="1.1" id="Layer_1" xmlns="http://www.w3.org/2000/svg" xmlns:xlink="http://www.w3.org/1999/xlink" x="0px" y="0px"
	 width="54px" height="80px" viewBox="0 0 54 80" enable-background="new 0 0 54 80" xml:space="preserve">
<path fill="#635A53" d="M35.202,36.203C35.202,31.68,31.523,28,27,28c-4.522,0-8.202,3.68-8.202,8.203
	c0,3.895,2.731,7.158,6.379,7.992v1.123H24.57c-1.007,0-1.823,0.816-1.823,1.823s0.816,1.82,1.823,1.82h0.606v1.216
	C25.177,51.184,25.993,52,27,52s1.823-0.816,1.823-1.823v-5.982C32.469,43.36,35.202,40.098,35.202,36.203z M27,40.152
	c-2.178,0-3.949-1.771-3.949-3.949s1.771-3.949,3.949-3.949s3.951,1.771,3.951,3.949S29.178,40.152,27,40.152z"/>
</svg>
